<svg xmlns="http://www.w3.org/2000/svg" xmlns:xlink="http://www.w3.org/1999/xlink" width="99" height="99" viewBox="0 0 99 99"><defs><style>.a,.c{fill:#fff;}.a{stroke:#707070;}.b{clip-path:url(#a);}</style><clipPath id="a"><rect class="a" width="99" height="99" transform="translate(796 2485)"/></clipPath></defs><g class="b" transform="translate(-796 -2485)"><path class="c" d="M563.872,942.556a1.742,1.742,0,0,0-1.23-1.209,1.811,1.811,0,0,0-1.7.408,13.286,13.286,0,0,1-9.034,3.511A13,13,0,0,1,538.8,932.78a1.736,1.736,0,0,0-1.475-1.66,12.038,12.038,0,0,1-10.272-11.789,11.543,11.543,0,0,1,1.175-5.071,1.676,1.676,0,0,0-.061-1.573,1.774,1.774,0,0,0-1.356-.864,45.274,45.274,0,0,0-4.567-.236c-23.766,0-43.1,18.752-43.1,41.8s19.336,41.8,43.1,41.8,43.1-18.751,43.1-41.8A40.719,40.719,0,0,0,563.872,942.556Zm-41.63,49.2c-21.814,0-39.56-17.211-39.56-38.366s17.746-38.367,39.56-38.367c.626,0,1.259.015,1.895.044a14.767,14.767,0,0,0-.626,4.265,15.437,15.437,0,0,0,11.834,14.886A16.576,16.576,0,0,0,551.909,948.7a16.921,16.921,0,0,0,9.161-2.669,37.38,37.38,0,0,1,.732,7.359C561.8,974.545,544.055,991.756,522.242,991.756Zm-10.694-42.708a12.093,12.093,0,1,0-12.463-12.087A12.294,12.294,0,0,0,511.548,949.048Zm0-20.741a8.658,8.658,0,1,1-8.922,8.653A8.8,8.8,0,0,1,511.548,928.307Zm-14.3,26.628a8.713,8.713,0,1,0,8.979,8.708A8.857,8.857,0,0,0,497.251,954.936Zm0,13.983a5.277,5.277,0,1,1,5.438-5.275A5.364,5.364,0,0,1,497.251,968.918Zm21.506-.7a8.713,8.713,0,1,0,8.98,8.708A8.857,8.857,0,0,0,518.757,968.22Zm0,13.982a5.277,5.277,0,1,1,5.439-5.274A5.365,5.365,0,0,1,518.757,982.2Zm20.754-28.811a7.661,7.661,0,1,0-7.657,7.426A7.553,7.553,0,0,0,539.511,953.39Zm-7.658,3.992a3.994,3.994,0,1,1,4.116-3.991A4.06,4.06,0,0,1,531.853,957.382Zm9.551,8.786a6.745,6.745,0,1,0,6.953,6.742A6.857,6.857,0,0,0,541.4,966.168Zm0,10.049a3.309,3.309,0,1,1,3.411-3.308A3.365,3.365,0,0,1,541.4,976.217Zm6.788-55.833a1.79,1.79,0,0,0,1.365-.622L555.325,913a1.682,1.682,0,0,0-.235-2.418,1.809,1.809,0,0,0-2.493.227l-5.768,6.759a1.682,1.682,0,0,0,.236,2.418A1.8,1.8,0,0,0,548.192,920.384Zm-10.452-2.9a1.745,1.745,0,0,0,1.771-1.716v-2.935a1.771,1.771,0,0,0-3.541,0v2.935A1.743,1.743,0,0,0,537.74,917.481Zm11.8,12.292a1.782,1.782,0,0,0,1.539.865,1.807,1.807,0,0,0,.877-.227l8.41-4.661a1.689,1.689,0,0,0,.659-2.343,1.8,1.8,0,0,0-2.416-.639L550.2,927.43A1.691,1.691,0,0,0,549.539,929.773Zm9.948,5.47h-5.526a1.718,1.718,0,1,0,0,3.434h5.526a1.718,1.718,0,1,0,0-3.434Z" transform="translate(322.86 1581.809)"/></g></svg>