<svg xmlns="http://www.w3.org/2000/svg" xmlns:xlink="http://www.w3.org/1999/xlink" width="99" height="99" viewBox="0 0 99 99"><defs><style>.a,.c{fill:#fff;}.a{stroke:#707070;}.b{clip-path:url(#a);}.c{stroke:#fff;}</style><clipPath id="a"><rect class="a" width="99" height="99" transform="translate(221 2734)"/></clipPath></defs><g class="b" transform="translate(-221 -2734)"><path class="c" d="M1748.9,396.105a15.864,15.864,0,0,1-3.915-.473c-4.492-1.057-7.274-4.161-7.274-8.1,0-6.15,1.435-17.29,11.049-22.784a8.613,8.613,0,0,0,3.944-4.888c1.922-6.176,7.254-10.324,13.27-10.324,6.151,0,11.358,4.049,13.264,10.315a8.62,8.62,0,0,0,3.946,4.9c7.182,4.1,10.949,11.776,11.195,22.8,0,3.85-2.722,6.881-7.281,8.088a18.69,18.69,0,0,1-3.861.4h-.083c-6.434,0-12.338-3.263-15.048-8.312a2.546,2.546,0,0,0-2.1-1.278l-.045,0-.045,0a2.366,2.366,0,0,0-1.945,1.3C1761.194,392.813,1755.272,396.105,1748.9,396.105Zm17.066-12.36a5.182,5.182,0,0,1,4.46,2.727c2.7,5.13,8.479,6.952,12.6,6.952a13.387,13.387,0,0,0,3.324-.4c1.21-.3,5.178-1.609,5.178-5.638,0-5.6-1.262-15.706-9.712-20.445a10.709,10.709,0,0,1-5.209-6.4c-1.53-5.051-5.805-8.442-10.639-8.442s-9.109,3.391-10.638,8.438a11.768,11.768,0,0,1-5.223,6.415c-8.016,4.641-9.7,13.677-9.7,20.44,0,2.708,1.84,4.659,5.182,5.5a13.444,13.444,0,0,0,3.333.4c4.109,0,9.873-1.784,12.591-6.808a4.89,4.89,0,0,1,4.4-2.732Zm-30.321-18.056a17.322,17.322,0,0,1-11.766-5.349,17.865,17.865,0,0,1-5.219-9.741c-.551-3.712.313-6.843,2.5-9.029a9.42,9.42,0,0,1,6.842-2.624,17.362,17.362,0,0,1,11.788,5.344,17.871,17.871,0,0,1,5.219,9.743,10.822,10.822,0,0,1-2.534,9.064,9.646,9.646,0,0,1-6.613,2.6Zm-7.774-24.191a6.922,6.922,0,0,0-4.821,1.942,7.439,7.439,0,0,0-1.8,6.768,14.909,14.909,0,0,0,4.375,8.12,14.655,14.655,0,0,0,9.892,4.573,6.827,6.827,0,0,0,4.963-1.864,7.609,7.609,0,0,0,1.8-6.846,14.962,14.962,0,0,0-4.384-8.173c-3.018-2.872-6.61-4.518-9.856-4.518Zm68.074,24.2a9.291,9.291,0,0,1-6.515-2.646,10.628,10.628,0,0,1-2.487-9.046,17.8,17.8,0,0,1,5.2-9.706,16.786,16.786,0,0,1,11.712-5.4,9.536,9.536,0,0,1,6.928,2.667,9.827,9.827,0,0,1,2.5,9.028,17.823,17.823,0,0,1-5.208,9.735,16.762,16.762,0,0,1-11.781,5.36C1796.179,365.7,1796.063,365.7,1795.949,365.7Zm7.936-24.057a14.778,14.778,0,0,0-9.844,4.529,14.938,14.938,0,0,0-4.37,8.151c-.335,3,.255,5.177,1.795,6.716a7.032,7.032,0,0,0,4.982,1.8,14.591,14.591,0,0,0,9.885-4.521,14.938,14.938,0,0,0,4.372-8.15c.349-2.946-.285-5.213-1.825-6.6a6.906,6.906,0,0,0-4.8-1.925Zm-50.637,6.3a11,11,0,0,1-4.926-1.334,15.243,15.243,0,0,1-7.336-9.789c-2.176-7.894,1-15.936,7.064-17.959a10.172,10.172,0,0,1,7.813.8,16.582,16.582,0,0,1,7.344,9.966c2.168,7.86-1,15.9-7.072,17.924A11.06,11.06,0,0,1,1753.248,347.942Zm-2.333-26.911a9.157,9.157,0,0,0-2.038.314c-4.775,1.591-7.124,8.128-5.279,14.586a13.107,13.107,0,0,0,5.932,8.189,7.148,7.148,0,0,0,5.657.654c4.684-1.561,7.1-8.09,5.406-14.561a13.12,13.12,0,0,0-5.939-8.208,8.3,8.3,0,0,0-3.686-.974h-.051Zm27.867,26.768a10.393,10.393,0,0,1-2.853-.4c-6.156-2.008-9.327-10.11-7.041-18.053a16.224,16.224,0,0,1,7.373-9.986,10.166,10.166,0,0,1,7.8-.781c6.049,2.016,9.221,10.059,7.052,17.921a16.218,16.218,0,0,1-7.37,9.978,9.757,9.757,0,0,1-4.889,1.32Zm2.206-26.768a8.264,8.264,0,0,0-3.645.95c-2.618,1.306-4.857,4.378-5.974,8.211-1.74,6.658.752,13.192,5.55,14.586a7.153,7.153,0,0,0,5.631-.648c2.592-1.291,4.831-4.364,5.948-8.2,1.7-6.491-.71-13.02-5.378-14.576a10.6,10.6,0,0,0-2.068-.326l-.032,0Z" transform="translate(-1495.502 2426.863)"/></g></svg>