<svg xmlns="http://www.w3.org/2000/svg" xmlns:xlink="http://www.w3.org/1999/xlink" width="99" height="99" viewBox="0 0 99 99"><defs><style>.a,.c{fill:#fff;}.a{stroke:#707070;}.b{clip-path:url(#a);}</style><clipPath id="a"><rect class="a" width="99" height="99" transform="translate(336 2485)"/></clipPath></defs><g class="b" transform="translate(-336 -2485)"><path class="c" d="M75.889,54.751l5.319-17.684a1.528,1.528,0,0,0-.144-1.15,1.455,1.455,0,0,0-1.006-.575L62.806,32.754C63.669,16.8,50.3,2.706,49.723,2.131A1.305,1.305,0,0,0,48.717,1.7h0a1.305,1.305,0,0,0-1.006.431C38.365,12.2,33.477,22.115,33.477,31.46l-17.4,2.588a1.455,1.455,0,0,0-1.006.575,1.085,1.085,0,0,0-.144,1.15L20.25,53.457c-7.045,3.882-14.089,11.789-18.978,26.6a1.154,1.154,0,0,0-.144,1.15,1.472,1.472,0,0,0,.863.719,62.637,62.637,0,0,0,13.514,1.581c5.607,0,13.083-.863,19.553-4.888l11.07,12.652a1.305,1.305,0,0,0,1.006.431h0a1.305,1.305,0,0,0,1.006-.431L59.068,78.761c9.345,5.607,23.291,5.607,32.78,3.019.431-.144.719-.288.863-.719a1.528,1.528,0,0,0,.144-1.15C88.4,66.684,82.215,58.92,75.889,54.751ZM73.445,53.17a27.27,27.27,0,0,0-13.083-3.163H59.068l10.783-5.463A1.383,1.383,0,1,0,68.557,42.1L56.624,48.138a26.455,26.455,0,0,0,5.751-12.8l15.527,2.3ZM48.573,5.007c3.163,3.738,12.508,15.958,11.214,28.9Q58.709,44.256,48.573,52.02V40.949l5.751-6.182A1.427,1.427,0,0,0,52.167,32.9l-3.738,4.026v-9.2L52.742,24.7a1.438,1.438,0,1,0-1.725-2.3l-2.732,1.869V17.083a1.438,1.438,0,1,0-2.875,0v9.2L43.685,23.7a1.427,1.427,0,1,0-2.157,1.869l4.313,5.319v9.058l-4.888-4.888a1.423,1.423,0,0,0-2.013,2.013l6.9,6.9v7.907C33.765,41.093,31.177,24.559,48.573,5.007ZM17.95,36.492l15.527-2.3a27.235,27.235,0,0,0,5.032,13.514L26.145,40.374a1.356,1.356,0,1,0-1.438,2.3L37.215,50.15a28.008,28.008,0,0,0-3.594-.288,26.842,26.842,0,0,0-11.07,2.3ZM4.148,79.48c7.907-22,20.272-26.741,29.473-26.741a30.283,30.283,0,0,1,10.351,1.869l-7.045,3.882-9.345-2.732a1.412,1.412,0,0,0-.719,2.732l6.757,1.869L25.57,64.671l-6.757-1.15a1.383,1.383,0,1,0-.431,2.732l3.307.575-8.051,4.457a1.414,1.414,0,0,0-.575,1.869,1.454,1.454,0,0,0,1.869.575l6.182-3.45-.431,3.307a1.424,1.424,0,0,0,1.15,1.581h.144a1.529,1.529,0,0,0,1.438-1.294l.575-5.319L32.039,64.1l-1.725,5.176a1.364,1.364,0,0,0,2.588.863l2.732-8.051,9.633-5.319c-3.019,19.409-17.827,23.722-29.9,23.722A43.545,43.545,0,0,1,4.148,79.48Zm43.131,8.914-9.92-11.214a25.558,25.558,0,0,0,8.195-10.5L45.41,80.63a1.441,1.441,0,0,0,1.438,1.438h0a1.441,1.441,0,0,0,1.438-1.438l.144-13.946a25.619,25.619,0,0,0,8.482,10.639Zm1.294-31.342,9.633,5.319,2.732,8.051a1.364,1.364,0,0,0,2.588-.863L61.8,64.384l8.051,4.457.575,5.319a1.424,1.424,0,0,0,1.581,1.15,1.347,1.347,0,0,0,1.15-1.581l-.288-3.45,6.182,3.45a1.383,1.383,0,1,0,1.294-2.444l-7.907-4.457,3.307-.575a1.383,1.383,0,1,0-.431-2.732l-6.757,1.15-8.051-4.313,6.757-1.869a1.412,1.412,0,1,0-.719-2.732l-9.489,2.732-7.045-3.738a30.284,30.284,0,0,1,10.351-1.869c9.2,0,21.566,4.744,29.473,26.741C69.851,83.649,51.88,77.9,48.573,57.051Z" transform="translate(338.966 2488.3)"/></g></svg>