<svg xmlns="http://www.w3.org/2000/svg" xmlns:xlink="http://www.w3.org/1999/xlink" width="99" height="99" viewBox="0 0 99 99"><defs><style>.a,.c{fill:#fff;stroke:#fff;}.b{clip-path:url(#a);}.c{stroke-width:1.5px;}</style><clipPath id="a"><rect class="a" width="99" height="99" transform="translate(1371 2734)"/></clipPath></defs><g class="b" transform="translate(-1371 -2734)"><path class="c" d="M211.012,922.292l-.336-.087V910.985a4.026,4.026,0,0,0-3.565-3.8v-7.043a3.166,3.166,0,0,0-3.417-2.894l-.023,0h-2.493a3.178,3.178,0,0,0-3.44,2.892v7.068a4.038,4.038,0,0,0-3.565,3.8v10.944h-1.134a4.463,4.463,0,0,0-4.314-3.839h-7.7a4.474,4.474,0,0,0-4.326,4.076l-.362.088a8.028,8.028,0,0,0-5.734,7.654v54.324a7.991,7.991,0,0,0,7.978,7.978h30.166a7.991,7.991,0,0,0,7.978-7.978V929.933A8,8,0,0,0,211.012,922.292Zm-11.031-22.151c0-.324.523-.7,1.246-.7h2.493c.711,0,1.247.374,1.247.7v6.993h-4.986Zm-3.578,10.87a1.982,1.982,0,0,1,2.194-1.683h7.7a1.969,1.969,0,0,1,2.181,1.683v10.944H196.4Zm-15.382,9.3h7.7a2.219,2.219,0,0,1,2.07,1.645h-11.83A2.219,2.219,0,0,1,181.02,920.31Zm33.507,63.947a5.784,5.784,0,0,1-5.784,5.784H178.577a5.784,5.784,0,0,1-5.784-5.784V929.933a5.822,5.822,0,0,1,4.176-5.547,4.746,4.746,0,0,1,.947-.187,5.521,5.521,0,0,1,.661,0h30.166a6.083,6.083,0,0,1,.661,0h.087a3.994,3.994,0,0,1,.885.187,5.8,5.8,0,0,1,4.151,5.534Z" transform="translate(1226.901 1839.264)"/></g></svg>