<svg xmlns="http://www.w3.org/2000/svg" xmlns:xlink="http://www.w3.org/1999/xlink" width="99" height="99" viewBox="0 0 99 99"><defs><style>.a,.b{fill:#fff;}.b{stroke:#fff;stroke-width:0.5px;}.c{clip-path:url(#a);}.d{clip-path:url(#b);}</style><clipPath id="a"><rect class="a" width="99" height="99" transform="translate(681 2734)"/></clipPath><clipPath id="b"><rect class="b" width="95" height="82.983"/></clipPath></defs><g class="c" transform="translate(-681 -2734)"><g transform="translate(683 2742)"><g class="d"><path class="b" d="M61.907,82.983a1.557,1.557,0,0,1-1.556-1.556V74.981H40.383v6.446a1.556,1.556,0,0,1-3.112,0V74.491a1.519,1.519,0,0,1,.031-.307,3.182,3.182,0,0,1,3.2-2.323l.767-.011V47.708H30.6a10.408,10.408,0,1,1,0-20.816h4.784l-.254-.974a10.534,10.534,0,0,1-.34-2.655,10.669,10.669,0,0,1,.116-1.555l.132-.892H10.41A10.408,10.408,0,0,1,10.4,0h43.9a1.556,1.556,0,1,1,0,3.112H10.41a7.3,7.3,0,0,0,0,14.6H47.292a1.556,1.556,0,1,1,0,3.112h-9l-.154.578a7.308,7.308,0,0,0,.123,4.157,7.521,7.521,0,0,0,.375.907l.214.434H41.69a1.556,1.556,0,0,1,0,3.112H30.6a7.3,7.3,0,1,0,0,14.592H42.818a1.547,1.547,0,0,1,1.227.6,1.528,1.528,0,0,1,.329.982V71.872H56.352V62.338a1.556,1.556,0,1,1,3.112,0V72.961l1.088-1.088a3.106,3.106,0,0,1,2.883,2.318,1.7,1.7,0,0,1,.029.3v6.936a1.558,1.558,0,0,1-1.556,1.556m-4-26.41a1.558,1.558,0,0,1-1.556-1.556V46.151a1.542,1.542,0,0,1,.311-.934A1.561,1.561,0,0,1,57.9,44.6a7.314,7.314,0,0,0,7.271-7.3,7.2,7.2,0,0,0-.737-3.19l-.213-.436H54.305a1.556,1.556,0,1,1,0-3.112H84.59a7.3,7.3,0,1,0,0-14.591H71.675a1.556,1.556,0,0,1,0-3.112h3.939l.154-.578a7.295,7.295,0,0,0-7.054-9.167H63.969a1.556,1.556,0,1,1,0-3.112h4.746a10.422,10.422,0,0,1,10.41,10.41,10.541,10.541,0,0,1-.116,1.554l-.133.893H84.59a10.408,10.408,0,1,1,0,20.816h-16.9l.255.975a10.422,10.422,0,0,1-7.866,12.825l-.613.133v7.412a1.558,1.558,0,0,1-1.556,1.556" transform="translate(0 0.001)"/></g></g></g></svg>