<svg xmlns="http://www.w3.org/2000/svg" xmlns:xlink="http://www.w3.org/1999/xlink" width="99" height="99" viewBox="0 0 99 99"><defs><style>.a,.c{fill:#fff;}.a{stroke:#707070;}.b{clip-path:url(#a);}</style><clipPath id="a"><rect class="a" width="99" height="99" transform="translate(1601 2734)"/></clipPath></defs><g class="b" transform="translate(-1601 -2734)"><g transform="translate(5 5)"><path class="c" d="M44.065,272.129A26.914,26.914,0,0,0,17.02,298.852v0A26.552,26.552,0,0,0,27.568,319.84v7.026a5.553,5.553,0,0,0-2.511,4.584,5.4,5.4,0,0,0,1.749,3.958,5.4,5.4,0,0,0-1.749,3.958c0,3.458,3.235,5.89,6.76,5.89h.272c0,.015,0,.029,0,.045v0a11.979,11.979,0,0,0,23.956,0v-.047h.272c3.525,0,6.76-2.432,6.76-5.89a5.4,5.4,0,0,0-1.749-3.958,5.4,5.4,0,0,0,1.749-3.958,5.553,5.553,0,0,0-2.511-4.584v-7.016a26.552,26.552,0,0,0,10.548-20.993v0a26.914,26.914,0,0,0-27.045-26.723Zm0,3.864A22.992,22.992,0,0,1,67.245,298.85a22.758,22.758,0,0,1-9.727,18.577,1.93,1.93,0,0,0-.819,1.579v6.554H51.494V310.794l4.566-5.38a1.932,1.932,0,1,0-2.947-2.5l-5.024,5.92a1.932,1.932,0,0,0-.459,1.251V325.56H40.472V310.085a1.932,1.932,0,0,0-.46-1.251l-5.022-5.92a1.932,1.932,0,1,0-2.947,2.5l4.566,5.38V325.56H31.43V319a1.932,1.932,0,0,0-.821-1.581,22.753,22.753,0,0,1-9.726-18.564v0a22.991,22.991,0,0,1,23.181-22.855Zm-35.1.962a1.932,1.932,0,0,0-.94,3.637l6.848,3.766a1.932,1.932,0,1,0,1.862-3.386l-6.848-3.765a1.934,1.934,0,0,0-.922-.251Zm70.146,0a1.931,1.931,0,0,0-.864.249l-6.856,3.771a1.932,1.932,0,1,0,1.862,3.384l6.856-3.769a1.932,1.932,0,0,0-1-3.635ZM3.527,296.271a1.932,1.932,0,1,0,0,3.864H11.4a1.932,1.932,0,1,0,0-3.864Zm73.208,0a1.932,1.932,0,1,0,0,3.864H84.61a1.932,1.932,0,1,0,0-3.864ZM15.746,311.8a1.932,1.932,0,0,0-.864.251l-6.856,3.769A1.932,1.932,0,1,0,9.888,319.2l6.856-3.769a1.932,1.932,0,0,0-1-3.635Zm56.593,0a1.932,1.932,0,0,0-.94,3.639l6.848,3.764a1.932,1.932,0,1,0,1.862-3.384l-6.848-3.766a1.932,1.932,0,0,0-.923-.253ZM31.817,329.423H56.311c1.826,0,2.9,1.1,2.9,2.026s-1.072,2.026-2.9,2.026H31.817c-1.826,0-2.9-1.1-2.9-2.026S29.991,329.423,31.817,329.423Zm0,7.916H56.311c1.826,0,2.9,1.1,2.9,2.026s-1.072,2.026-2.9,2.026c-8.134-.037-16.368,0-24.494,0-1.826,0-2.9-1.1-2.9-2.026S29.991,337.339,31.817,337.339Zm4.132,7.916H52.173c0,.015,0,.033,0,.047a8.116,8.116,0,0,1-16.229,0Z" transform="translate(1601.405 2463.871)"/></g></g></svg>