<svg xmlns="http://www.w3.org/2000/svg" xmlns:xlink="http://www.w3.org/1999/xlink" width="99" height="99" viewBox="0 0 99 99"><defs><style>.a,.c{fill:#fff;}.a{stroke:#707070;}.b{clip-path:url(#a);}</style><clipPath id="a"><rect class="a" width="99" height="99" transform="translate(1141 2734)"/></clipPath></defs><g class="b" transform="translate(-1141 -2734)"><path class="c" d="M888.587,905.05h-54.2a1.866,1.866,0,0,0-1.873,1.859v6.971c0,.028,0,.057,0,.086s0,.074.008.11v.018l8.242,65.7a1.848,1.848,0,0,0,.189.613c.416,1.041,1.538,1.81,3.576,2.423v12.155c0,2.537,3.365,3.546,5.9,4.084a62.839,62.839,0,0,0,22.106,0c2.532-.538,5.9-1.547,5.9-4.084V982.832c2.038-.612,3.158-1.382,3.575-2.421a1.825,1.825,0,0,0,.19-.615l8.242-65.7v-.018c0-.036.006-.073.008-.11s0-.057,0-.086v-6.971A1.866,1.866,0,0,0,888.587,905.05ZM874.693,994.5c-1.187.714-5.744,1.828-13.2,1.828s-12.017-1.114-13.2-1.828v-1.961a21.323,21.323,0,0,0,2.151.56,62.866,62.866,0,0,0,22.106,0,21.314,21.314,0,0,0,2.151-.56Zm0-5.967c-1.187.714-5.744,1.828-13.2,1.828s-12.017-1.114-13.2-1.828v-4.9c1.565.25,3.331.453,5.235.6l.112.009c.233.018.467.035.7.051l.238.015.6.038.361.02c.165.009.33.019.5.027l.476.022c.133.006.265.013.4.018.187.008.378.015.567.021l.327.013.63.018.277.008.675.014.245,0,.728.009.2,0c.311,0,.623,0,.937,0s.626,0,.937,0l.2,0,.729-.009.245,0,.675-.014.276-.008.631-.018.326-.013c.19-.006.38-.013.568-.021.134-.005.266-.012.4-.018l.475-.022c.167-.008.332-.018.5-.027l.36-.02.6-.038.238-.015c.237-.016.471-.033.7-.051l.112-.009c1.9-.148,3.669-.35,5.235-.6Zm3.858-9.717a9.5,9.5,0,0,1-2.263.732c-.047.007-.094.013-.14.023a70.3,70.3,0,0,1-13.436,1.234l-.171,0-.3,0-.749,0-.749,0-.3,0-.172,0a70.288,70.288,0,0,1-13.436-1.234c-.046-.01-.093-.016-.139-.023a9.5,9.5,0,0,1-2.264-.732l-7.916-63.095h49.955Zm8.163-66.814h-50.45v-3.237h50.45Z" transform="translate(329.481 1830.95)"/><path class="c" d="M855.433,969.029h22.921a1.868,1.868,0,0,0,1.864-1.676l2.6-26.029a1.852,1.852,0,0,0-.476-1.432,1.881,1.881,0,0,0-1.389-.611H852.837a1.881,1.881,0,0,0-1.388.611,1.854,1.854,0,0,0-.476,1.432l2.6,26.029A1.869,1.869,0,0,0,855.433,969.029ZM878.883,943l-2.226,22.31H857.13L854.9,943Z" transform="translate(324.077 1820.92)"/></g></svg>