<svg xmlns="http://www.w3.org/2000/svg" xmlns:xlink="http://www.w3.org/1999/xlink" width="99" height="99" viewBox="0 0 99 99"><defs><style>.a,.b,.e{fill:#fff;}.a{stroke:#707070;}.b,.e{stroke:#fff;}.c{opacity:0.25;clip-path:url(#a);}.d{clip-path:url(#b);}.e{fill-rule:evenodd;}</style><clipPath id="a"><rect class="a" width="99" height="99" transform="translate(566 2485)"/></clipPath><clipPath id="b"><rect class="b" width="77.164" height="77.164" transform="translate(0 0)"/></clipPath></defs><g class="c" transform="translate(-566 -2485)"><g transform="translate(577 2496)"><g class="d"><path class="e" d="M9.414,77.164A9.425,9.425,0,0,1,0,67.75V25.367c0-.283.017-.565.042-.845l.014-.151-.032-.147A1.088,1.088,0,0,1,0,24a1.075,1.075,0,0,1,.159-.553l.078-.131.035-.148a9.427,9.427,0,0,1,2.486-4.461L18.707,2.758A9.483,9.483,0,0,1,25.367,0H67.75a9.425,9.425,0,0,1,9.414,9.414v40.3a9.35,9.35,0,0,1-2.758,6.656L56.371,74.406a9.354,9.354,0,0,1-6.656,2.758ZM3.929,70.6a.917.917,0,0,1-.088.069l-.8.6.575.822A7.192,7.192,0,0,0,9.414,75h40.3a7.275,7.275,0,0,0,1.588-.182l.779-.177V52.164H22.363ZM54.25,73.466,72.875,54.84a7.182,7.182,0,0,0,.918-1.124l1.025-1.552H54.25ZM2.164,69.3,20.832,50.633V25.082H2.164ZM54.25,24.445V50H75V9.414a7.174,7.174,0,0,0-.713-3.121l-.61-1.274ZM23,50H52.082V25.082H23ZM25.367,2.164a7.226,7.226,0,0,0-1.587.182L23,2.522V22.914H52.719L72.145,3.488l-1.274-.61a7.174,7.174,0,0,0-3.121-.714ZM4.289,20.242a7.237,7.237,0,0,0-.914,1.119L2.344,22.914H20.832V3.7Z"/></g></g></g></svg>