<svg xmlns="http://www.w3.org/2000/svg" xmlns:xlink="http://www.w3.org/1999/xlink" width="99" height="99" viewBox="0 0 99 99"><defs><style>.a,.c{fill:#fff;}.a{stroke:#707070;}.b{clip-path:url(#a);}</style><clipPath id="a"><rect class="a" width="99" height="99" transform="translate(1486 2485)"/></clipPath></defs><g class="b" transform="translate(-1486 -2485)"><path class="c" d="M85.281,3.382A8.111,8.111,0,0,0,77.5,9.654l-.155.637L41.681,22.513H17.486a1.936,1.936,0,0,0-1.908,1.993v4.481l-.918.2a14.869,14.869,0,0,0,0,28.888l.918.2v4.488a1.928,1.928,0,0,0,1.908,1.986h4.563L26.9,90.008a8.03,8.03,0,0,0,7.767,6.628,8.132,8.132,0,0,0,7.76-9.863L38.194,64.759h3.49L77.35,76.981l.155.637a8.114,8.114,0,0,0,7.78,6.265,8.2,8.2,0,0,0,8.036-8.364V11.756a8.2,8.2,0,0,0-8.036-8.364Zm0,3.985A4.316,4.316,0,0,1,89.5,11.746V75.5a4.217,4.217,0,1,1-8.428,0V11.746a4.318,4.318,0,0,1,4.214-4.379Zm-8.036,7.148V72.743L43.9,61.329v-35.4l31.83-10.894ZM19.4,26.491H40.076v34.27H19.4V26.491ZM15.578,32.91V54.341l-1.536-.568a10.926,10.926,0,0,1,0-20.295ZM25.94,64.746h8.352l4.388,22.8a4.244,4.244,0,0,1-4.023,5.094,4.16,4.16,0,0,1-4.017-3.424l-4.428-23.04Z" transform="translate(1487.679 2484.618)"/></g></svg>