<svg xmlns="http://www.w3.org/2000/svg" xmlns:xlink="http://www.w3.org/1999/xlink" width="99" height="99" viewBox="0 0 99 99"><defs><style>.a{fill:#fff;}.b{clip-path:url(#a);}</style><clipPath id="a"><rect class="a" width="99" height="99" transform="translate(911 2734)"/></clipPath></defs><g class="b" transform="translate(-911 -2734)"><path class="a" d="M175.248,175.65a1.8,1.8,0,0,1-1.706-1.875v-10.9a5.1,5.1,0,0,0-4.835-5.312h-5.4a1.8,1.8,0,0,1-1.706-1.875V149.75H151.358v5.938a1.8,1.8,0,0,1-1.706,1.875h-5.4a5.1,5.1,0,0,0-4.835,5.312v10.9a1.714,1.714,0,1,1-3.413,0v-10.9c0-5,3.7-9.062,8.248-9.062h3.7v-5.938A1.8,1.8,0,0,1,149.651,146H163.3a1.8,1.8,0,0,1,1.706,1.875v5.938h3.7c4.548,0,8.248,4.065,8.248,9.062v10.9A1.8,1.8,0,0,1,175.248,175.65Z" transform="translate(804.771 2617.375)"/><path class="a" d="M136,343.1a1.8,1.8,0,0,1,1.706-1.875h0a1.8,1.8,0,0,1,1.706,1.875h0a1.8,1.8,0,0,1-1.706,1.875h0A1.8,1.8,0,0,1,136,343.1Z" transform="translate(804.771 2458.759)"/><path class="a" d="M168.707,323.864h-24.46a7.567,7.567,0,0,1-3.21-.712,8.2,8.2,0,0,1-2.621-1.943,9.134,9.134,0,0,1-1.768-2.88A9.782,9.782,0,0,1,136,314.8v-7.384a1.714,1.714,0,1,1,3.413,0V314.8a5.11,5.11,0,0,0,4.834,5.312h24.46a5.11,5.11,0,0,0,4.834-5.312v-7.369a1.714,1.714,0,1,1,3.413,0V314.8a9.782,9.782,0,0,1-.648,3.527,9.132,9.132,0,0,1-1.768,2.88,8.2,8.2,0,0,1-2.621,1.943A7.567,7.567,0,0,1,168.707,323.864Zm6.541-25.258a1.883,1.883,0,1,1,1.706-1.875A1.8,1.8,0,0,1,175.248,298.606Zm0-10.7a1.8,1.8,0,0,1-1.706-1.875v-.015a1.714,1.714,0,1,1,3.413,0v.015A1.8,1.8,0,0,1,175.248,287.9Z" transform="translate(804.771 2505.136)"/><path class="a" d="M214.771,34.75H197.706A1.8,1.8,0,0,1,196,32.875a12.086,12.086,0,0,1,1.774-6.326,10.246,10.246,0,0,1-.068-1.174c0-5.169,3.827-9.375,8.532-9.375s8.532,4.206,8.532,9.375a10.287,10.287,0,0,1-.068,1.174,12.086,12.086,0,0,1,1.774,6.326A1.8,1.8,0,0,1,214.771,34.75ZM199.626,31h13.225a7.741,7.741,0,0,0-1.284-2.81,2.018,2.018,0,0,1-.334-1.581,6.213,6.213,0,0,0,.125-1.234,5.142,5.142,0,1,0-10.238,0,6.2,6.2,0,0,0,.125,1.233,2.018,2.018,0,0,1-.334,1.582A7.737,7.737,0,0,0,199.626,31Z" transform="translate(755.009 2723)"/><path class="a" d="M201.6,109.125h-23.89A1.8,1.8,0,0,1,176,107.25V97.875A1.8,1.8,0,0,1,177.706,96H201.6a1.8,1.8,0,0,1,1.706,1.875v9.375A1.8,1.8,0,0,1,201.6,109.125Zm-22.183-3.75H199.89V99.75H179.413Z" transform="translate(771.597 2658)"/><path class="a" d="M277.706,133.5A1.8,1.8,0,0,1,276,131.625v-3.75a1.714,1.714,0,1,1,3.413,0v3.75A1.8,1.8,0,0,1,277.706,133.5Z" transform="translate(688.66 2633.625)"/><path class="a" d="M247.706,133.5A1.8,1.8,0,0,1,246,131.625v-3.75a1.714,1.714,0,1,1,3.413,0v3.75A1.8,1.8,0,0,1,247.706,133.5Z" transform="translate(713.541 2633.625)"/><path class="a" d="M217.706,133.5A1.8,1.8,0,0,1,216,131.625v-3.75a1.714,1.714,0,1,1,3.413,0v3.75A1.8,1.8,0,0,1,217.706,133.5Z" transform="translate(738.422 2633.625)"/><path class="a" d="M233.3,429.75h-25.6a1.883,1.883,0,0,1,0-3.75h25.6a1.883,1.883,0,0,1,0,3.75Z" transform="translate(746.716 2389.875)"/><path class="a" d="M169.413,429.75h-1.706a1.883,1.883,0,0,1,0-3.75h1.706a1.883,1.883,0,0,1,0,3.75Z" transform="translate(779.89 2389.875)"/><path class="a" d="M53.3,479.75h-25.6a1.883,1.883,0,0,1,0-3.75H53.3a1.883,1.883,0,0,1,0,3.75Z" transform="translate(896 2349.25)"/><path class="a" d="M257.945,477.875A1.8,1.8,0,0,1,259.651,476h0a1.8,1.8,0,0,1,1.706,1.875h0a1.8,1.8,0,0,1-1.706,1.875h0A1.8,1.8,0,0,1,257.945,477.875Zm-11.945,0A1.8,1.8,0,0,1,247.706,476h0a1.8,1.8,0,0,1,1.706,1.875h0a1.8,1.8,0,0,1-1.706,1.875h0A1.8,1.8,0,0,1,246,477.875Z" transform="translate(713.541 2349.25)"/><path class="a" d="M343.3,479.75h-25.6a1.883,1.883,0,0,1,0-3.75h25.6a1.883,1.883,0,0,1,0,3.75Z" transform="translate(655.486 2349.25)"/><path class="a" d="M51.119,137.25a5.65,5.65,0,0,1,0-11.25,5.65,5.65,0,0,1,0,11.25Zm0-7.5a1.883,1.883,0,1,0,1.706,1.875A1.8,1.8,0,0,0,51.119,129.75Z" transform="translate(879.413 2633.625)"/><path class="a" d="M382.826,91C379.062,91,376,87.635,376,83.5s3.062-7.5,6.826-7.5,6.826,3.364,6.826,7.5S386.589,91,382.826,91Zm0-11.25a3.767,3.767,0,1,0,3.413,3.75A3.6,3.6,0,0,0,382.826,79.75Z" transform="translate(605.725 2674.25)"/><path class="a" d="M399.308,222.642c-3.429,0-6.219-3.067-6.219-6.837,0-2.327,1.555-4.425,3.059-6.454a26.356,26.356,0,0,0,1.677-2.436,1.8,1.8,0,0,1,.563-.631,1.62,1.62,0,0,1,2.351.6,25.034,25.034,0,0,0,1.736,2.505c1.5,2,3.055,4.069,3.055,6.417C405.531,219.575,402.739,222.642,399.308,222.642Zm-.013-11.6c-.167.228-.334.454-.5.679-1.021,1.378-2.293,3.093-2.293,4.086a2.821,2.821,0,1,0,5.616,0c0-1-1.209-2.61-2.275-4.03C399.661,211.532,399.477,211.287,399.295,211.04Z" transform="translate(591.552 2568.625)"/><path class="a" d="M39.308,323.882c-3.429,0-6.219-3.067-6.219-6.837,0-2.327,1.555-4.425,3.059-6.454a26.341,26.341,0,0,0,1.678-2.437,1.8,1.8,0,0,1,.562-.629,1.62,1.62,0,0,1,2.351.6,25.024,25.024,0,0,0,1.736,2.505c1.5,2,3.055,4.069,3.055,6.417C45.531,320.815,42.739,323.882,39.308,323.882Zm-.013-11.6c-.166.228-.334.454-.5.678-1.021,1.378-2.293,3.093-2.293,4.086a2.821,2.821,0,1,0,5.616,0c0-1-1.209-2.61-2.275-4.03C39.661,312.772,39.477,312.528,39.295,312.281Z" transform="translate(890.121 2486.368)"/></g></svg>