<svg xmlns="http://www.w3.org/2000/svg" xmlns:xlink="http://www.w3.org/1999/xlink" width="99" height="99" viewBox="0 0 99 99"><defs><style>.a,.b{fill:#fff;}.a{stroke:#707070;}.b{stroke:#fff;stroke-width:1.5px;}.c{clip-path:url(#a);}.d{clip-path:url(#b);}</style><clipPath id="a"><rect class="a" width="99" height="99" transform="translate(451 2734)"/></clipPath><clipPath id="b"><rect class="b" width="95" height="75.795"/></clipPath></defs><g class="c" transform="translate(-451 -2734)"><g transform="translate(453 2746)"><g class="d" transform="translate(0 0)"><path class="b" d="M5.137,75.795A5.167,5.167,0,0,1,0,70.658V45.825a5.088,5.088,0,0,1,1.509-3.62,5.1,5.1,0,0,1,3.628-1.516H9.76A5.089,5.089,0,0,1,13.379,42.2a5.178,5.178,0,0,1,1.33,2.266l.364,1.31L17.326,44.4a28.548,28.548,0,0,1,7.666-3.272,16.3,16.3,0,0,1,2.463-.388l1.257-.1L27.92,37.9H23.162a1.029,1.029,0,0,1-1.027-1.027V26.683a1.028,1.028,0,0,1,1.027-1.027h4.774l.2-.761a27.176,27.176,0,0,1,1.121-3.317,26.569,26.569,0,0,1,1.558-3.158l.392-.682-3.374-3.374a1.031,1.031,0,0,1,0-1.454L35.046,5.7a1.027,1.027,0,0,1,1.453,0l3.374,3.374.683-.393A26.931,26.931,0,0,1,43.7,7.126,26.521,26.521,0,0,1,47.023,6l.763-.2V1.027A1.029,1.029,0,0,1,48.814,0H59.007a1.028,1.028,0,0,1,1.027,1.027V5.8L60.8,6a27,27,0,0,1,3.317,1.121,25.524,25.524,0,0,1,3.15,1.555l.683.4L71.323,5.7a1.027,1.027,0,0,1,1.453,0l7.208,7.207a1.028,1.028,0,0,1,0,1.454l-3.375,3.375.4.683a27.5,27.5,0,0,1,1.557,3.153,25.627,25.627,0,0,1,1.123,3.314l.2.763h4.775a1.029,1.029,0,0,1,1.027,1.027V36.872A1.029,1.029,0,0,1,84.663,37.9H79.908l-.448,1.587a1.027,1.027,0,0,1-.981.716,1.015,1.015,0,0,1-.9-.535,1.023,1.023,0,0,1-.082-.782l.3-1.078.236-.989.007-.064a1.024,1.024,0,0,1,1.021-.91H83.64V27.7H79.064a1.04,1.04,0,0,1-1-.83,24.423,24.423,0,0,0-1.383-4.519,24.086,24.086,0,0,0-2.162-4.081,1.053,1.053,0,0,1,.052-1.4l3.239-3.238L72.057,7.878l-3.238,3.238a1.039,1.039,0,0,1-.726.3,1.028,1.028,0,0,1-.566-.171A24.7,24.7,0,0,0,59,7.663a1.063,1.063,0,0,1-1.014-1.038V2.046H49.845V6.625a1.039,1.039,0,0,1-.83,1,24.559,24.559,0,0,0-8.6,3.544,1.1,1.1,0,0,1-.677.247,1.017,1.017,0,0,1-.724-.3L35.78,7.878l-5.755,5.755,3.238,3.238a1.034,1.034,0,0,1,.126,1.292,24.353,24.353,0,0,0-2.231,4.192,24.09,24.09,0,0,0-1.344,4.339,1.063,1.063,0,0,1-1.038,1.012H24.2v8.143h4.579a1.038,1.038,0,0,1,1,.829,23.644,23.644,0,0,0,.625,2.425c.133.429.284.864.442,1.3l.193.523.543.123a12.638,12.638,0,0,1,1.235.346l.158.052h7.635l-.878-1.537a16.422,16.422,0,0,1-.963-1.974A16.359,16.359,0,1,1,70.287,31.78a16.5,16.5,0,0,1-.362,3.421,16.05,16.05,0,0,1-1.067,3.26,1.03,1.03,0,0,1-.937.608,1.022,1.022,0,0,1-.93-1.436,14.247,14.247,0,0,0,.931-2.859,14.438,14.438,0,0,0,.31-3,14.305,14.305,0,1,0-25.176,9.3l.307.361h3.472a7.221,7.221,0,0,1,7.186,7.188v3.538l5.854.976L82.952,42.952a8.834,8.834,0,0,1,3.536-.758,7.771,7.771,0,0,1,2.007.258,6.741,6.741,0,0,1,4.167,3.189l2.2,3.817a1.018,1.018,0,0,1-.376,1.389L54.364,70.033a1.035,1.035,0,0,1-.438.1l-31.262-3.18-7.817,4.513-.1.424A5.172,5.172,0,0,1,9.76,75.795ZM5.124,42.751a3.107,3.107,0,0,0-2.179.9,3.075,3.075,0,0,0-.9,2.179V70.666a3.083,3.083,0,0,0,3.082,3.082H9.747a3.083,3.083,0,0,0,3.082-3.082V45.833a3.083,3.083,0,0,0-3.082-3.082Zm23.448,0a13.731,13.731,0,0,0-3.128.379,26.509,26.509,0,0,0-7.088,3.027l-3.468,2.121v20.8l7.03-4.06a1.036,1.036,0,0,1,.513-.138l31.31,3.188,38.8-18.55-1.656-2.863a4.768,4.768,0,0,0-2.928-2.225,5.73,5.73,0,0,0-1.476-.19,6.793,6.793,0,0,0-2.719.593L60.414,55.137a1.043,1.043,0,0,1-.579.072l-6.91-1.154H32.678a1.027,1.027,0,0,1,.137-2.045H51.957V48.63a5.139,5.139,0,0,0-5.137-5.137H32.814a1.016,1.016,0,0,1-.424-.093l-.1-.04a11.51,11.51,0,0,0-3.718-.611m35.273,1.729a1.02,1.02,0,0,1-.783-1.678l.531-.479a1.015,1.015,0,0,1,.683-.264,1.021,1.021,0,0,1,1.017,1.07,1.013,1.013,0,0,1-.334.7l-.458.407a1.012,1.012,0,0,1-.656.239" transform="translate(0 0)"/></g></g></g></svg>