<svg xmlns="http://www.w3.org/2000/svg" xmlns:xlink="http://www.w3.org/1999/xlink" width="99" height="99" viewBox="0 0 99 99"><defs><style>.a,.b{fill:#fff;}.a{stroke:#707070;}.b{stroke:#fff;stroke-width:0.25px;}.c{clip-path:url(#a);}.d{clip-path:url(#b);}</style><clipPath id="a"><rect class="a" width="99" height="99" transform="translate(1256 2485)"/></clipPath><clipPath id="b"><rect class="b" width="76.58" height="90.625" transform="translate(0 0)"/></clipPath></defs><g class="c" transform="translate(-1256 -2485)"><g transform="translate(1267 2489)"><g class="d"><path class="b" d="M54.224,29.875h0A5.47,5.47,0,1,0,49.173,26.5a5.481,5.481,0,0,0,5.051,3.375M52.06,23.508a2.344,2.344,0,1,1,.508,2.554,2.342,2.342,0,0,1-.508-2.554M29.692,28.125a1.563,1.563,0,0,1,3.125,0,1.563,1.563,0,0,1-3.125,0m14.063-12.5a1.563,1.563,0,0,1,3.125,0,1.563,1.563,0,0,1-3.125,0m30.547,32c-5.546-5.5-16.781-.25-22.734,5.656a25.962,25.962,0,0,0-2.412,2.776L47.092,39.063h15.74a8.994,8.994,0,0,0,7.11-3.5,9.2,9.2,0,0,0,1.672-7.813C67.567,11.406,53.864,0,38.286,0S9.005,11.406,4.958,27.8A9.2,9.2,0,0,0,6.63,35.61a8.99,8.99,0,0,0,7.109,3.453H29.5l-.74,6.084A21.582,21.582,0,0,0,.192,59.922a5.569,5.569,0,0,0,1,4.891,6.248,6.248,0,0,0,4.937,2.375H16.195L13.77,85.344a4.644,4.644,0,0,0,4.641,5.281h5.375a4.78,4.78,0,0,0,4.734-5.281l-.034-.26A9.382,9.382,0,0,0,34.1,82.578c1.531-1.5,2.625-4.3,3.234-8.344A3.122,3.122,0,0,0,33.692,70.7a27.373,27.373,0,0,0-6.869,1.928L26.1,67.188h9.971a6.246,6.246,0,0,0,4.938-2.375,5.572,5.572,0,0,0,1-4.891A21.589,21.589,0,0,0,31.756,46.557l.911-7.494H43.921L49.379,84a3.12,3.12,0,0,1-3.109,3.5H33.426a1.563,1.563,0,0,0,0,3.125H46.254a6.247,6.247,0,0,0,6.25-7l-.693-5.708c5.377-.9,13.194-4.155,16.71-7.714,3.875-3.922,8.047-10.625,8.047-16.422A8.294,8.294,0,0,0,74.3,47.625M13.408,48.6a3.115,3.115,0,1,1-4.88,3.272c.41-.383.835-.752,1.281-1.1a18.526,18.526,0,0,1,3.6-2.174m14.05,27.309c.547-.5,2.578-1.359,6.8-2.14-.5,3.218-1.344,5.609-2.344,6.578a5.951,5.951,0,0,1-3.845,1.6l-.778-5.823c.059-.069.108-.145.17-.211M25.066,83.3a1.564,1.564,0,0,0,.08.595l.249,1.87a1.562,1.562,0,0,1-1.562,1.766H18.458A1.564,1.564,0,0,1,16.9,85.765l2.479-18.577h3.543ZM38.974,60.735a2.438,2.438,0,0,1-.438,2.172,3.128,3.128,0,0,1-2.469,1.156H6.129a3.126,3.126,0,0,1-2.468-1.156,2.438,2.438,0,0,1-.438-2.172,18.567,18.567,0,0,1,3.04-6.314A6.235,6.235,0,1,0,16.6,47.452a18.574,18.574,0,0,1,4.5-.576h0A18.577,18.577,0,0,1,38.974,60.735M35.942,7.813A9.373,9.373,0,0,1,17.9,11.4,30.168,30.168,0,0,1,34.778,3.273a9.378,9.378,0,0,1,1.164,4.54M9.1,33.688A5.978,5.978,0,0,1,8.005,28.5a35.421,35.421,0,0,1,7.6-14.717,12.49,12.49,0,0,0,23.464-5.97,12.359,12.359,0,0,0-.914-4.763c.046,0,.091,0,.137,0h0c14.14,0,26.589,10.515,30.324,25.453a5.984,5.984,0,0,1-1.094,5.188,5.9,5.9,0,0,1-4.688,2.25H45.477a1.448,1.448,0,0,0-.329,0H25.8v-.765a5.469,5.469,0,1,0-10.937,0v.765H13.786A5.893,5.893,0,0,1,9.1,33.688m13.577,2.25H17.989v-.765a2.344,2.344,0,1,1,4.687,0Zm45.082,30.5a1.538,1.538,0,0,0-.237-.034l-9.192-.829,5.08-5.029,7.749.86a29.457,29.457,0,0,1-3.4,5.032M55.365,54.2a1.691,1.691,0,0,0-.034-.175,28.125,28.125,0,0,1,5.031-3.335l.854,7.634L56.1,63.4Zm10.9,3.515,6.623-6.555a5.349,5.349,0,0,1,.552,2.617,13.786,13.786,0,0,1-.933,4.63Zm4.4-8.756-6.606,6.545-.686-6.131c2.783-.979,5.412-1.228,7.292-.414M52.458,56.877l.847,9.288L50.7,68.748,49.745,60.9a23.523,23.523,0,0,1,2.713-4.025M51.173,72.663l4.256-4.213,9.348.853a36.248,36.248,0,0,1-13.343,5.5ZM11.505,57.313h0Zm11.937-4.188a1.563,1.563,0,0,1,3.125,0,1.563,1.563,0,0,1-3.125,0m6.25,6.25a1.563,1.563,0,0,1,3.125,0,1.563,1.563,0,0,1-3.125,0"/></g></g></g></svg>