<?xml version="1.0" encoding="UTF-8"?>
<svg id="Layer_2" data-name="Layer 2" xmlns="http://www.w3.org/2000/svg" viewBox="0 0 1079.13 193.47">
  <defs>
    <style>
      .cls-1 {
        fill: #2a3a52;
      }

      .cls-2 {
        fill: #c80b6a;
      }
    </style>
  </defs>
  <g id="Layer_1-2" data-name="Layer 1">
    <g>
      <path class="cls-1" d="M314.1.7h-27l-33,93.3h25.7l3.8-10.7h33.9l3.8,10.7h25.8L314.1.7ZM292.3,58.6l8.3-23.3,8.3,23.3h-16.6Z"/>
      <path class="cls-1" d="M379.6,69.3V.7h-24.2v93.3h56.4v-24.7h-32.2Z"/>
      <path class="cls-1" d="M405.2.7v24.6h17.4v68.6h24.3V25.3h18.4V.7h-60.1Z"/>
      <path class="cls-1" d="M533,25.3V.7h-56.3v93.3h56.4v-24.7h-32.2v-9.7h30.1v-24.6h-30.1v-9.7h32.1Z"/>
      <path class="cls-1" d="M622.9,40.2c.2-10.5-3.9-20.6-11.3-28-7.1-7.5-17.1-11.7-27.4-11.6h-39.5v93.3h24.2v-14.2h15.2c.4,0,1,0,1.7-.1l8.3,14.3h28.1l-13.6-23.1c9.5-8,14.3-18.1,14.3-30.6ZM594.4,50.7c-2.7,2.8-6.4,4.4-10.3,4.3h-15.2v-29.7h15.2c3.9-.1,7.6,1.5,10.3,4.4,2.8,2.8,4.3,6.6,4.3,10.5.1,3.9-1.5,7.7-4.3,10.5Z"/>
      <path class="cls-1" d="M697.9.7v65.1L666.3.7h-31.8v93.3h24.2v-53.5l26,53.4h37.5V.7h-24.3Z"/>
      <path class="cls-1" d="M790.7.7h-27l-33,93.3h25.7l3.8-10.7h33.9l3.8,10.7h25.8L790.7.7ZM768.9,58.6l8.3-23.3,8.3,23.3h-16.6Z"/>
      <path class="cls-1" d="M816.6.7v24.6h17.4v68.6h24.2V25.3h18.4V.7h-60Z"/>
      <path class="cls-1" d="M888.1.7v93.3h24.2V.7h-24.2Z"/>
      <path class="cls-1" d="M987.9.7l-20.7,58.7L946.4.7h-25.7l33,93.3h27L1013.7.7h-25.8Z"/>
      <path class="cls-1" d="M1078.5,25.3V.7h-56.4v93.3h56.4v-24.7h-32.2v-9.7h30.1v-24.6h-30.1v-9.7h32.2Z"/>
      <path class="cls-1" d="M307.3,125.6c-5.7-6-13.6-9.4-21.9-9.2h-31.5v74.4h19.3v-11.4h12.2c8.3.1,16.2-3.3,21.9-9.3,12.1-12.3,12.1-32.1,0-44.5h0ZM293.6,156.3c-2.1,2.3-5.1,3.5-8.2,3.5h-12.2v-23.7h12.2c3.1,0,6.1,1.2,8.2,3.5,4.6,4.6,4.6,12,0,16.7h0Z"/>
      <path class="cls-1" d="M388.1,147.9c.1-8.4-3.1-16.4-9.1-22.3-5.7-6-13.6-9.4-21.9-9.2h-31.5v74.4h19.3v-11.4h12.2c.3,0,.8,0,1.3-.1l6.6,11.4h22.5l-10.8-18.4c7.4-5.9,11.6-14.9,11.4-24.4ZM365.3,156.3c-2.1,2.3-5.1,3.5-8.2,3.5h-12.2v-23.7h12.2c3.1,0,6.1,1.2,8.2,3.5,4.5,4.6,4.5,12,0,16.7h0Z"/>
      <path class="cls-1" d="M461.4,126.7c-14.3-14.6-37.7-14.9-52.3-.7-.2.2-.5.4-.7.7-14.7,15-14.7,39,0,54.1,14.3,14.6,37.7,14.9,52.3.7.2-.2.5-.4.7-.7,14.6-15.1,14.6-39.1,0-54.1h0ZM447.7,166.8c-6.8,7.1-18.1,7.3-25.2.4-.2-.1-.3-.3-.4-.4-7.1-7.3-7.1-18.9,0-26.2,6.8-7.1,18.1-7.3,25.2-.4.2.1.3.3.4.4,7.1,7.3,7.1,19,0,26.2Z"/>
      <path class="cls-1" d="M534.2,127c-6.7-7.1-16.1-11.1-25.9-11h-25.9v74.8h25.9c9.8.1,19.2-3.8,25.9-10.9,14.3-14.8,14.3-38.2,0-52.9h0ZM520.5,166c-3.2,3.4-7.6,5.2-12.2,5.2h-6.6v-35.4h6.6c4.6-.1,9.1,1.8,12.2,5.2,3.3,3.3,5.2,7.8,5.1,12.4.1,4.8-1.7,9.3-5.1,12.6Z"/>
      <path class="cls-1" d="M593.1,116.3v45.8c0,2.7-1,5.2-2.9,7.1-3.8,3.8-9.9,3.9-13.7.1l-.1-.1c-1.9-1.9-2.9-4.4-2.9-7.1v-45.8h-19.3v45.8c-.1,7.9,2.9,15.5,8.5,21,11,11.4,29.1,11.7,40.5.7l.7-.7c5.6-5.5,8.7-13.1,8.6-21v-45.8h-19.4Z"/>
      <path class="cls-1" d="M659.3,172.3c-4.9.1-9.5-1.9-12.8-5.4-7.1-7.3-7.1-18.9,0-26.2,3.3-3.5,8-5.5,12.8-5.4,4.1,0,8,1.3,11.2,3.9l13.7-14c-14.7-13.5-37.5-12.8-51.4,1.6-14.7,15-14.7,39,0,54.1,13.9,14.3,36.6,15,51.4,1.6l-13.7-14c-3.2,2.3-7.2,3.8-11.2,3.8Z"/>
      <path class="cls-1" d="M693.3,116.3v19.7h13.9v54.8h19.4v-54.8h14.7v-19.7h-48Z"/>
      <path class="cls-1" d="M800.9,166.4c-.5-9.3-5.4-15.8-14.6-19.6l-9.4-2.6c-4.6-.9-6.9-2.3-7-4.3-.1-1.2.3-2.3,1.1-3.2s1.9-1.5,3.1-1.5c3.8-.3,7.6,1.3,10.1,4.2l14.1-13.6c-4.2-4.6-9.7-7.9-15.8-9.3-3.2-.8-6.5-1.1-9.8-.9-6.3.3-12.1,3.3-16.2,8.1-4.3,4.7-6.4,11-5.9,17.4.5,9,5.1,15.6,13.6,19.6l9.2,2.9c3.6.7,6.1,1.5,7.4,2.4.5.4.8,1,.9,1.7.2,1.2-.2,2.3-.9,3.2-1.3,1-2.8,1.5-4.4,1.5-1.1,0-2.2-.1-3.3-.5-2.5-.6-4.7-1.9-6.4-3.7l-14,13.6c6.4,6.9,14.5,10.3,24.3,10.3,7-.5,12.7-2.7,16.9-6.6,5.1-4.9,7.4-11.3,7-19.1Z"/>
      <path class="cls-1" d="M973.7,115.8h-44l-18.8,29.3-18.9-29.3h-56.7v76.2h55.9l19.6-30.5,19.6,30.5h16.6v-23h26.7c7,.1,13.7-2.8,18.5-7.9,10.2-10.4,10.2-27.1,0-37.5-4.8-5.1-11.5-7.9-18.5-7.8ZM883.6,187.4v-4.4h-39.4v-24.7h35.4v-8.9h-35.4v-24.7h39.4v-5.6l22,34.1-22,34.2ZM916.2,153.2l22-34.2v68.5l-22-34.3ZM985.9,154.8c-3.1,3.4-7.6,5.3-12.2,5.2h-26.6v-35.3h26.6c4.6-.1,9,1.8,12.2,5.1,6.7,7,6.7,18.1,0,25h0ZM1075,137.3c-1.9-3.8-4.4-7.3-7.4-10.3-14.5-15-38.3-15.3-53.3-.8-.3.3-.6.6-.8.8-14.9,15.3-14.9,39.7,0,55,14.5,15,38.4,15.3,53.3.8.3-.3.6-.6.8-.8,3-3,5.5-6.5,7.4-10.4,5.5-10.8,5.5-23.6,0-34.3h0ZM1061.3,175.7c-11.2,11.5-29.5,11.8-41,.6-.2-.2-.4-.4-.6-.6-2-2-3.7-4.3-5.1-6.8-4.3-9.2-4.3-19.7,0-28.9,1.4-2.5,3.1-4.8,5.1-6.8,11.2-11.5,29.5-11.8,41-.6.2.2.4.4.6.6,11.5,11.8,11.5,30.7,0,42.5h0Z"/>
      <path class="cls-2" d="M184.9,153.4c-7.8,7.9-16.7,14.6-26.3,20.2-11.3,6.5-23.5,11.3-36.2,14.1-8.2,1.8-16.5,2.8-24.8,2.9h-2.5C42.5,190.5-.1,147.8,0,95.2.1,49.2,33,9.8,78.3,1.6c2.3-.4,4.7-.8,7.1-1,3.2-.3,6.5-.5,9.7-.5h2.5l1.5.1h.9c15.4.8,30.3,5.3,43.6,13.1v50c-.6,7.5-1.6,12-3.9,19-6.7-6.7-14.8-11.7-23.8-14.8h-.1c-6.6-2.6-13.7-4-20.8-4-2.5,0-5.1.3-7.5.9-.4.1-.9.2-1.3.3s-.8.2-1.2.4l-.7.2c-.3.1-.5.2-.8.3s-.6.2-1,.4c-.1,0-.3.1-.4.2-.2.1-.5.2-.7.3s-.7.3-1,.5l-.6.3c-1.2.6-2.3,1.3-3.4,2.1-.3.2-.6.4-.9.7s-.6.5-.9.7h0l.1-.1-.2.2-.8.7c-.3.3-.6.6-1,.9-.2.2-.3.3-.5.5l-.5.5c-.9.9-1.7,1.9-2.5,3-.3.3-.5.7-.8,1.1-.7,1.1-1.4,2.2-2,3.4-.2.4-.4.8-.6,1.2s-.4.8-.5,1.2l-.1.4c-.1.2-.2.5-.3.7-.1.4-.3.8-.4,1.2-.3.9-.5,1.8-.7,2.7,0,.2-.1.4-.1.7s-.1.4-.1.7-.1.7-.2,1c-.1.6-.2,1.2-.2,1.8,0,.4-.1.8-.1,1.2v1.5c0,.8,0,1.6.1,2.4,0,.2,0,.5.1.7v.5c.1.1.1.6.1.8,0,.3.1.7.2,1s.1.5.2.8c.1.2.1.5.2.8v.1c.2.9.4,1.7.7,2.5.1.2.2.5.2.7s.1.4.2.5.2.5.3.8c.5,1.2,1.1,2.5,1.7,3.6l.4.7c.7,1.3,1.6,2.5,2.5,3.6.3.4.7.9,1,1.3s.8.8,1.1,1.3.8.8,1.2,1.2h0c.4.4.8.7,1.2,1.1l.1.1c.4.3.7.6,1.1.9.1.1.3.2.4.3.3.2.6.5,1,.7l.4.3c.4.3.8.6,1.2.8.4.2,1,.6,1.5.8.5.3,1.2.6,1.9.9.3.1.7.3,1,.4s.8.3,1.2.4h.1c.3.1.7.2,1,.3l.4.1,1.1.3c.4.1.8.2,1.3.3.7.2,1.5.3,2.3.4h.3c.4.1.9.1,1.4.2h0l.9.1h4.6c.3,0,.7,0,1.1-.1h0c.6,0,1.2-.1,1.8-.1,32.8-2.8,56-31.5,58-65.1V0h63.5v63.5c-.7,12-1.8,21.4-4,31.8h0c-5.6,22-17.1,42-33.2,58.1ZM75.7,69.9c-.7.5-1.4,1.1-2,1.7.7-.6,1.3-1.2,2-1.7ZM159.2,190.3h-.6v.3h63.5v-63.5c-13.7,27.2-35.7,49.3-62.9,63.2h0Z"/>
      <path class="cls-1" d="M131,95.5c-7.1-7.4-19.7-17.2-35.8-17.2-9.4,0-17,7.6-17,17s7.6,17,17,17h0c16.7,0,28.9-9.5,35.8-16.8Z"/>
    </g>
  </g>
</svg>