<?xml version="1.0" encoding="utf-8"?>
<svg width="223.07px" height="40px" viewBox="0 0 223.1 40" xmlns="http://www.w3.org/2000/svg" xmlns:bx="https://boxy-svg.com">
  <g id="AltPro_Logo_Main" data-name="AltPro Logo Main" transform="matrix(0.206741, 0, 0, 0.206754, 111.548996, 19.999968)" bx:origin="0.000005 -0.000001">
    <g id="Group_743" data-name="Group 743" transform="translate(-539.563 -96.733)">
      <path id="Path_678" data-name="Path 678" d="M314.1.7h-27L254.1,94h25.7l3.8-10.7h33.9L321.3,94h25.8ZM292.3,58.6l8.3-23.3,8.3,23.3Z" transform="translate(0)" fill="#2a3a52"/>
      <path id="Path_679" data-name="Path 679" d="M379.6,69.3V.7H355.4V94h56.4V69.3Z" transform="translate(0)" fill="#2a3a52"/>
      <path id="Path_680" data-name="Path 680" d="M405.2.7V25.3h17.4V93.9h24.3V25.3h18.4V.7Z" transform="translate(0)" fill="#2a3a52"/>
      <path id="Path_681" data-name="Path 681" d="M533,25.3V.7H476.7V94h56.4V69.3H500.9V59.6H531V35H500.9V25.3Z" transform="translate(0)" fill="#2a3a52"/>
      <path id="Path_682" data-name="Path 682" d="M622.9,40.2a38.564,38.564,0,0,0-11.3-28A37.333,37.333,0,0,0,584.2.6H544.7V93.9h24.2V79.7h15.2a11.562,11.562,0,0,0,1.7-.1l8.3,14.3h28.1L608.6,70.8C618.1,62.8,622.9,52.7,622.9,40.2ZM594.4,50.7A13.82,13.82,0,0,1,584.1,55H568.9V25.3h15.2a13.551,13.551,0,0,1,10.3,4.4,14.83,14.83,0,0,1,4.3,10.5A14.422,14.422,0,0,1,594.4,50.7Z" transform="translate(0)" fill="#2a3a52"/>
      <path id="Path_683" data-name="Path 683" d="M697.9.7V65.8L666.3.7H634.5V94h24.2V40.5l26,53.4h37.5V.7Z" transform="translate(0)" fill="#2a3a52"/>
      <path id="Path_684" data-name="Path 684" d="M790.7.7h-27L730.7,94h25.7l3.8-10.7h33.9L797.9,94h25.8ZM768.9,58.6l8.3-23.3,8.3,23.3Z" transform="translate(0)" fill="#2a3a52"/>
      <path id="Path_685" data-name="Path 685" d="M816.6.7V25.3H834V93.9h24.2V25.3h18.4V.7Z" transform="translate(0)" fill="#2a3a52"/>
      <path id="Path_686" data-name="Path 686" d="M888.1.7V94h24.2V.7Z" transform="translate(0)" fill="#2a3a52"/>
      <path id="Path_687" data-name="Path 687" d="M987.9.7,967.2,59.4,946.4.7H920.7l33,93.3h27l33-93.3Z" transform="translate(0)" fill="#2a3a52"/>
      <path id="Path_688" data-name="Path 688" d="M1078.5,25.3V.7h-56.4V94h56.4V69.3h-32.2V59.6h30.1V35h-30.1V25.3Z" transform="translate(0)" fill="#2a3a52"/>
      <path id="Path_689" data-name="Path 689" d="M307.3,125.6a29.236,29.236,0,0,0-21.9-9.2H253.9v74.4h19.3V179.4h12.2a29.7,29.7,0,0,0,21.9-9.3,31.814,31.814,0,0,0,0-44.5Zm-13.7,30.7a11.035,11.035,0,0,1-8.2,3.5H273.2V136.1h12.2a11.035,11.035,0,0,1,8.2,3.5,11.83,11.83,0,0,1,0,16.7Z" transform="translate(0)" fill="#2a3a52"/>
      <path id="Path_690" data-name="Path 690" d="M388.1,147.9a30.568,30.568,0,0,0-9.1-22.3,29.236,29.236,0,0,0-21.9-9.2H325.6v74.4h19.3V179.4h12.2a6.638,6.638,0,0,0,1.3-.1l6.6,11.4h22.5l-10.8-18.4A30.327,30.327,0,0,0,388.1,147.9Zm-22.8,8.4a11.035,11.035,0,0,1-8.2,3.5H344.9V136.1h12.2a11.035,11.035,0,0,1,8.2,3.5,12.017,12.017,0,0,1,0,16.7Z" transform="translate(0)" fill="#2a3a52"/>
      <path id="Path_691" data-name="Path 691" d="M461.4,126.7a37.063,37.063,0,0,0-52.3-.7,4.62,4.62,0,0,0-.7.7,38.7,38.7,0,0,0,0,54.1,37.063,37.063,0,0,0,52.3.7,4.619,4.619,0,0,0,.7-.7,38.886,38.886,0,0,0,0-54.1Zm-13.7,40.1a17.746,17.746,0,0,1-25.2.4c-.2-.1-.3-.3-.4-.4a18.776,18.776,0,0,1,0-26.2,17.746,17.746,0,0,1,25.2-.4c.2.1.3.3.4.4A18.776,18.776,0,0,1,447.7,166.8Z" transform="translate(0)" fill="#2a3a52"/>
      <path id="Path_692" data-name="Path 692" d="M534.2,127a35.14,35.14,0,0,0-25.9-11H482.4v74.8h25.9a35.047,35.047,0,0,0,25.9-10.9,37.978,37.978,0,0,0,0-52.9Zm-13.7,39a16.635,16.635,0,0,1-12.2,5.2h-6.6V135.8h6.6a16.11,16.11,0,0,1,12.2,5.2,17.149,17.149,0,0,1,5.1,12.4A16.891,16.891,0,0,1,520.5,166Z" transform="translate(0)" fill="#2a3a52"/>
      <path id="Path_693" data-name="Path 693" d="M593.1,116.3v45.8a9.9,9.9,0,0,1-2.9,7.1,9.658,9.658,0,0,1-13.7.1l-.1-.1a9.9,9.9,0,0,1-2.9-7.1V116.3H554.2v45.8a29.115,29.115,0,0,0,49,21.7l.7-.7a28.916,28.916,0,0,0,8.6-21V116.3Z" transform="translate(0)" fill="#2a3a52"/>
      <path id="Path_694" data-name="Path 694" d="M659.3,172.3a17.071,17.071,0,0,1-12.8-5.4,18.776,18.776,0,0,1,0-26.2,17.227,17.227,0,0,1,12.8-5.4,17.556,17.556,0,0,1,11.2,3.9l13.7-14a36.816,36.816,0,0,0-51.4,1.6,38.7,38.7,0,0,0,0,54.1,37,37,0,0,0,51.4,1.6l-13.7-14A19.6,19.6,0,0,1,659.3,172.3Z" transform="translate(0)" fill="#2a3a52"/>
      <path id="Path_695" data-name="Path 695" d="M693.3,116.3V136h13.9v54.8h19.4V136h14.7V116.3Z" transform="translate(0)" fill="#2a3a52"/>
      <path id="Path_696" data-name="Path 696" d="M800.9,166.4c-.5-9.3-5.4-15.8-14.6-19.6l-9.4-2.6c-4.6-.9-6.9-2.3-7-4.3a4.441,4.441,0,0,1,4.2-4.7,12.2,12.2,0,0,1,10.1,4.2l14.1-13.6a30.8,30.8,0,0,0-15.8-9.3,32.313,32.313,0,0,0-9.8-.9,22.771,22.771,0,0,0-16.2,8.1,23.054,23.054,0,0,0-5.9,17.4c.5,9,5.1,15.6,13.6,19.6l9.2,2.9c3.6.7,6.1,1.5,7.4,2.4a2.588,2.588,0,0,1,.9,1.7,4.064,4.064,0,0,1-.9,3.2,7.1,7.1,0,0,1-4.4,1.5,9.462,9.462,0,0,1-3.3-.5,12.925,12.925,0,0,1-6.4-3.7l-14,13.6c6.4,6.9,14.5,10.3,24.3,10.3,7-.5,12.7-2.7,16.9-6.6C799,180.6,801.3,174.2,800.9,166.4Z" transform="translate(0)" fill="#2a3a52"/>
      <path id="Path_697" data-name="Path 697" d="M973.7,115.8h-44l-18.8,29.3L892,115.8H835.3V192h55.9l19.6-30.5L930.4,192H947V169h26.7a24.948,24.948,0,0,0,18.5-7.9,26.8,26.8,0,0,0,0-37.5A24.856,24.856,0,0,0,973.7,115.8Zm-90.1,71.6V183H844.2V158.3h35.4v-8.9H844.2V124.7h39.4v-5.6l22,34.1Zm32.6-34.2,22-34.2v68.5Zm69.7,1.6a16.11,16.11,0,0,1-12.2,5.2H947.1V124.7h26.6a16.541,16.541,0,0,1,12.2,5.1,18.06,18.06,0,0,1,0,25Zm89.1-17.5a39.676,39.676,0,0,0-7.4-10.3,37.635,37.635,0,0,0-53.3-.8l-.8.8a39.424,39.424,0,0,0,0,55,37.637,37.637,0,0,0,53.3.8l.8-.8a38.562,38.562,0,0,0,7.4-10.4,37.714,37.714,0,0,0,0-34.3Zm-13.7,38.4a28.944,28.944,0,0,1-41,.6l-.6-.6a31.023,31.023,0,0,1-5.1-6.8,33.985,33.985,0,0,1,0-28.9,31.023,31.023,0,0,1,5.1-6.8,28.944,28.944,0,0,1,41-.6l.6.6a30.49,30.49,0,0,1,0,42.5Z" transform="translate(0)" fill="#2a3a52"/>
      <path id="Path_698" data-name="Path 698" d="M184.9,153.4a126.066,126.066,0,0,1-26.3,20.2,127.917,127.917,0,0,1-36.2,14.1,122.555,122.555,0,0,1-24.8,2.9H95.1A95.261,95.261,0,0,1,78.3,1.6c2.3-.4,4.7-.8,7.1-1C88.6.3,91.9.1,95.1.1h2.5l1.5.1h.9a95.9,95.9,0,0,1,43.6,13.1v50a71.346,71.346,0,0,1-3.9,19,62.094,62.094,0,0,0-23.8-14.8h-.1a56.98,56.98,0,0,0-20.8-4,31.415,31.415,0,0,0-7.5.9c-.4.1-.9.2-1.3.3a5.638,5.638,0,0,0-1.2.4l-.7.2c-.3.1-.5.2-.8.3a6.9,6.9,0,0,0-1,.4.758.758,0,0,0-.4.2c-.2.1-.5.2-.7.3a9.249,9.249,0,0,0-1,.5l-.6.3a23.943,23.943,0,0,0-3.4,2.1,5.5,5.5,0,0,0-.9.7,5.5,5.5,0,0,1-.9.7h0l.1-.1-.2.2-.8.7a9.015,9.015,0,0,1-1,.9l-.5.5-.5.5a24.846,24.846,0,0,0-2.5,3,10.475,10.475,0,0,0-.8,1.1,37.911,37.911,0,0,0-2,3.4l-.6,1.2a6.117,6.117,0,0,0-.5,1.2l-.1.4c-.1.2-.2.5-.3.7-.1.4-.3.8-.4,1.2a26.807,26.807,0,0,0-.7,2.7c0,.2-.1.4-.1.7s-.1.4-.1.7a3.553,3.553,0,0,1-.2,1,11.019,11.019,0,0,0-.2,1.8c0,.4-.1.8-.1,1.2v1.5a19.268,19.268,0,0,0,.1,2.4,1.7,1.7,0,0,0,.1.7v.5a1.949,1.949,0,0,1,.1.8,3.553,3.553,0,0,0,.2,1c.1.3.1.5.2.8.1.2.1.5.2.8v.1a18.243,18.243,0,0,0,.7,2.5,1.854,1.854,0,0,1,.2.7.764.764,0,0,0,.2.5,3.385,3.385,0,0,1,.3.8,39.709,39.709,0,0,0,1.7,3.6l.4.7a23.055,23.055,0,0,0,2.5,3.6c.3.4.7.9,1,1.3a14.959,14.959,0,0,1,1.1,1.3,6.815,6.815,0,0,0,1.2,1.2h0c.4.4.8.7,1.2,1.1l.1.1c.4.3.7.6,1.1.9.1.1.3.2.4.3a8.65,8.65,0,0,0,1,.7l.4.3a8.342,8.342,0,0,0,1.2.8c.4.2,1,.6,1.5.8a17.153,17.153,0,0,0,1.9.9c.3.1.7.3,1,.4s.8.3,1.2.4h.1c.3.1.7.2,1,.3l.4.1,1.1.3c.4.1.8.2,1.3.3a15.719,15.719,0,0,0,2.3.4h.3c.4.1.9.1,1.4.2h0l.9.1h4.6a4.485,4.485,0,0,0,1.1-.1h0c.6,0,1.2-.1,1.8-.1,32.8-2.8,56-31.5,58-65.1V0h63.5V63.5a202.958,202.958,0,0,1-4,31.8h0A126.191,126.191,0,0,1,184.9,153.4ZM75.7,69.9a16.32,16.32,0,0,0-2,1.7C74.4,71,75,70.4,75.7,69.9Zm83.5,120.4h-.6v.3h63.5V127.1a143.4,143.4,0,0,1-62.9,63.2Z" transform="translate(0)" fill="#c80b6a"/>
      <path id="Path_699" data-name="Path 699" d="M131,95.5c-7.1-7.4-19.7-17.2-35.8-17.2a17,17,0,0,0,0,34h0C111.9,112.3,124.1,102.8,131,95.5Z" transform="translate(0)" fill="#2a3a52"/>
      <g id="DOBpk7" transform="translate(0)" style="isolation: isolate">
        <g id="Group_742" data-name="Group 742">
          <path id="Path_700" data-name="Path 700" d="M222.1,190.9H158.6c28-14.6,49-35.6,63.5-63.5Z" fill="#c80b6a"/>
        </g>
      </g>
    </g>
  </g>
</svg>